<svg width="14" height="13" viewBox="0 0 14 13" fill="none" xmlns="http://www.w3.org/2000/svg">
<path d="M13.5 7.50001C13.5 9.11131 12.7218 10.3464 11.5773 11.1945C10.4217 12.0508 8.90355 12.5 7.49997 12.5C5.47859 12.5 3.85477 12.0149 2.80853 11.173C1.78753 10.3514 1.26868 9.15451 1.49494 7.57072C1.7331 5.9039 2.57397 3.86661 3.69799 2.50594C4.25964 1.82605 4.85981 1.35413 5.45029 1.15298C6.01496 0.96062 6.60275 1.00278 7.22262 1.41603C8.588 2.3263 9.68111 2.96514 10.5473 3.46499C10.6103 3.50135 10.6719 3.53686 10.7322 3.5716C11.5119 4.0211 12.0642 4.33947 12.4744 4.65311C12.8967 4.976 13.1317 5.26769 13.277 5.65323C13.4308 6.06157 13.5 6.61645 13.5 7.50001Z" fill="black" stroke="black"/>
</svg>
